<svg width="21" height="18" viewBox="0 0 21 18" fill="none" xmlns="http://www.w3.org/2000/svg">
<path d="M20.3923 14.8598C20.0038 14.4773 15.2961 12.6563 14.4418 12.3128C13.5921 11.9753 13.2531 11.0401 13.2531 11.0401C13.2531 11.0401 12.8706 11.2516 12.8706 10.6576C12.8706 10.0628 13.2531 11.0401 13.6356 8.74659C13.6356 8.74659 14.6968 8.44884 14.4861 5.98659H14.2311C14.2311 5.98659 14.8686 3.35409 14.2311 2.46309C13.5913 1.57209 13.3408 0.978087 11.9361 0.552087C10.5336 0.126837 11.0436 0.211587 10.0251 0.255087C9.0051 0.297837 8.1561 0.849837 8.1561 1.14609C8.1561 1.14609 7.5186 1.18884 7.2651 1.44384C7.0101 1.69884 6.5856 2.88684 6.5856 3.18384C6.5856 3.48084 6.79785 5.47884 7.0101 5.90184L6.75735 5.98434C6.5451 8.44734 7.60635 8.74584 7.60635 8.74584C7.98885 11.0393 8.37135 10.0621 8.37135 10.6568C8.37135 11.2508 7.98885 11.0393 7.98885 11.0393C7.98885 11.0393 7.6491 11.9738 6.8001 12.3121C5.9511 12.6518 1.2381 14.4773 0.854849 14.8591C0.472349 15.2491 0.515099 17.0311 0.515099 17.0311H9.5421L10.2006 14.4361L9.6156 13.8511L10.6228 12.8423L11.6301 13.8503L11.0451 14.4353L11.7036 17.0303H20.7306C20.7306 17.0303 20.7778 15.2468 20.3909 14.8576L20.3923 14.8598Z" fill="white"/>
</svg>
