<svg width="128" height="117" viewBox="0 0 128 117" fill="none" xmlns="http://www.w3.org/2000/svg">
<g filter="url(#filter0_d_119_4641)">
<path fill-rule="evenodd" clip-rule="evenodd" d="M76.0363 5.17146L121.349 83.0165C123.085 85.7222 124 88.8554 124 92.078C124 99.5429 119.138 105.862 112.43 108.02L112.781 108.814L20.7262 108.813C20.7002 108.813 20.6745 108.814 20.6485 108.814C11.461 108.814 4 101.325 4 92.078C4 88.8551 4.91483 85.7213 6.65139 83.0156L52.1787 4.94995C55.2625 1.82341 59.4944 0 64.0001 0C68.6201 0 72.9429 1.91805 76.0363 5.17146Z" fill="url(#paint0_linear_119_4641)"/>
<path fill-rule="evenodd" clip-rule="evenodd" d="M75.4408 10.7933L75.4807 10.7575L96.8162 47.8958L118.133 85.0014C119.457 87.0351 120.228 89.4658 120.228 92.0776C120.228 99.2244 114.463 105.018 107.352 105.018C107.225 105.018 107.099 105.016 106.974 105.012L106.976 105.018H75.5006H56.3655H20.745L20.7453 105.017C20.713 105.017 20.681 105.018 20.6486 105.018C13.5374 105.018 7.77246 99.2244 7.77246 92.0776C7.77246 89.4655 8.54339 87.0346 9.86793 85.0008L31.1842 47.8958L52.824 10.2277L52.855 10.2515C55.0834 6.39138 59.2399 3.79517 64.0002 3.79517C68.9798 3.79517 73.2987 6.63628 75.4408 10.7933Z" fill="#FEFEFE"/>
<path fill-rule="evenodd" clip-rule="evenodd" d="M67.7679 61.1861L67.7809 61.1978L74.7623 49.0455L81.7375 36.9038C82.1709 36.2384 82.423 35.443 82.423 34.5883C82.423 32.2498 80.5366 30.354 78.2097 30.354C78.1683 30.354 78.127 30.3548 78.086 30.356L78.0867 30.354H67.7874C68.3825 32.0003 69.1211 33.6075 69.9175 35.2024C70.7571 36.8837 71.6703 38.5484 72.4356 40.2639C73.0506 41.6425 73.6478 43.2369 73.6478 44.7661C73.6478 50.1237 69.7879 54.5886 64.3271 54.5886C58.8345 54.5886 54.5533 49.3389 54.5533 44.0181C54.5533 43.4184 54.6082 42.8205 54.7123 42.2301C55.3024 38.8805 57.457 35.8698 59.438 33.1959C60.134 32.2565 60.8487 31.3166 61.5261 30.354H49.8704L49.8704 30.3544C49.8599 30.3543 49.8494 30.354 49.8389 30.354C47.5119 30.354 45.6255 32.2498 45.6255 34.5883C45.6255 35.4431 45.8778 36.2385 46.3112 36.904L53.2863 49.0455L60.3672 61.3711L60.3774 61.3633C61.1065 62.6264 62.4666 63.476 64.0242 63.476C65.6537 63.476 67.0669 62.5463 67.7679 61.1861Z" fill="#27386D"/>
<path d="M72.7163 44.7674C72.7163 49.7178 69.1763 53.7309 64.2505 53.7309C59.3249 53.7309 55.3315 48.9698 55.3315 44.0194C55.3315 36.2141 65.4376 30.1623 65.4376 22.8987C65.4376 32.5319 72.7163 39.8171 72.7163 44.7674Z" fill="url(#paint1_radial_119_4641)"/>
<path d="M64.2509 53.5154C61.9717 53.5154 59.789 52.4756 58.1046 50.5879C56.4795 48.7663 55.5474 46.3725 55.5474 44.0202C55.5474 40.1193 58.1637 36.6033 60.6938 33.203C62.7067 30.4979 64.6314 27.911 65.3535 25.1523C65.8958 29.875 68.0226 34.0216 69.778 37.4443C71.2395 40.2932 72.5015 42.7536 72.5015 44.7682C72.5015 47.1377 71.6745 49.3364 70.1734 50.959C68.6483 52.6074 66.545 53.5154 64.2509 53.5154Z" fill="url(#paint2_radial_119_4641)"/>
<path d="M69.7772 37.4443C68.0218 34.0216 65.895 29.875 65.3527 25.1523C64.9541 26.6754 64.1884 28.1462 63.2441 29.6133C63.8719 31.5899 64.6473 33.803 65.4364 35.4841C67.2715 39.3938 70.6476 42.1969 70.4275 45.59C70.2768 47.9132 69.5408 50.9965 66.6662 53.1603C68.0017 52.7537 69.204 52.006 70.1726 50.959C71.6737 49.3364 72.5007 47.1377 72.5007 44.7682C72.5007 42.7536 71.2387 40.2932 69.7772 37.4443Z" fill="url(#paint3_radial_119_4641)"/>
<path d="M57.4784 43.2795C57.1667 43.2833 56.8281 43.3137 56.4619 43.3805C56.4531 43.5009 56.4482 43.6204 56.4482 43.7387C56.4482 44.7728 56.8462 46.2363 57.9238 47.1819C57.6719 46.3195 57.4734 45.1325 57.4734 43.5327C57.4734 43.4485 57.4754 43.3641 57.4784 43.2795Z" fill="url(#paint4_linear_119_4641)"/>
<path d="M60.8469 33.6211C60.8469 33.6211 55.6704 39.4202 55.6704 43.6417C55.6704 47.8631 58.1314 51.4448 60.9742 52.7241C59.0649 51.4875 56.1797 48.2041 56.1797 43.8122C56.1797 41.5618 56.6464 39.6334 60.8469 33.6211Z" fill="#C6E9F6"/>
<path d="M59.2265 38.5013C59.048 38.9911 59.0972 39.4599 59.3363 39.548C59.5756 39.6359 59.9143 39.3102 60.0931 38.82C60.2714 38.33 60.2224 37.8612 59.983 37.7732C59.7438 37.685 59.4051 38.011 59.2265 38.5013Z" fill="white"/>
<path d="M59.5617 36.9379C59.4607 37.2149 59.4886 37.4796 59.6237 37.5294C59.7588 37.5792 59.9502 37.395 60.0511 37.1182C60.152 36.8412 60.1242 36.5762 59.989 36.5267C59.8539 36.4769 59.6625 36.661 59.5617 36.9379Z" fill="white"/>
<path d="M71.1271 48.501C71.1271 48.501 69.1797 53.0858 64.6173 53.0858C60.0557 53.0858 59.2353 50.4073 59.7994 49.7889C60.634 48.6538 62.0616 50.0333 64.7202 51.0254C67.8981 51.0254 69.6409 50.3043 71.1271 48.501Z" fill="url(#paint5_linear_119_4641)"/>
<path fill-rule="evenodd" clip-rule="evenodd" d="M23.1123 97.2187V95.0716C23.1123 94.6667 23.2085 94.3497 23.4003 94.1207C23.5921 93.8924 23.8576 93.7778 24.1963 93.7778C24.4942 93.7778 24.7444 93.8682 24.9467 94.0496C25.1491 94.2311 25.2502 94.4521 25.2502 94.7118C25.2502 94.8554 25.2181 94.9853 25.1545 95.1014C25.0912 95.2167 24.9958 95.3184 24.869 95.4047C25.0391 95.4789 25.1723 95.5886 25.267 95.733C25.3617 95.8781 25.409 96.0427 25.409 96.2266C25.409 96.521 25.3056 96.7597 25.0976 96.9436C24.8898 97.1267 24.616 97.2187 24.2759 97.2187H23.7238V96.7928H24.2807C24.4845 96.7928 24.6451 96.7412 24.7623 96.638C24.8786 96.5355 24.937 96.3952 24.937 96.2169C24.937 96.0459 24.8786 95.9088 24.7605 95.808C24.6425 95.7064 24.4829 95.6556 24.2807 95.6556H23.7238V95.249H24.1186C24.3264 95.249 24.4917 95.203 24.6146 95.1103C24.7365 95.0183 24.7974 94.8933 24.7974 94.736C24.7974 94.5763 24.7431 94.4457 24.6329 94.3432C24.5238 94.2408 24.3827 94.1892 24.2102 94.1892C24.0054 94.1892 23.8448 94.2561 23.7292 94.3901C23.613 94.5247 23.5552 94.7102 23.5552 94.949V97.2187H23.1123ZM28.0238 96.1935C27.966 96.5242 27.8329 96.7863 27.6243 96.9783C27.4162 97.1711 27.1625 97.2671 26.8632 97.2671C26.7614 97.2671 26.661 97.2534 26.5617 97.2259C26.462 97.1977 26.368 97.1574 26.2806 97.1042C26.0961 96.9904 25.9523 96.842 25.8505 96.6589C25.7486 96.4766 25.6978 96.275 25.6978 96.0564C25.6978 95.8951 25.7277 95.7426 25.7863 95.5975C25.8449 95.4523 25.9299 95.3217 26.0405 95.2047C26.1522 95.0894 26.2791 95.0022 26.4204 94.9417C26.5624 94.882 26.7115 94.8522 26.8681 94.8522C27.1018 94.8522 27.3104 94.9143 27.4941 95.0386C27.6786 95.1619 27.8279 95.3426 27.9419 95.5797L26.4307 96.421L26.2564 96.1064L27.3785 95.4781C27.3096 95.4006 27.2316 95.3426 27.1457 95.3031C27.059 95.2636 26.9653 95.2442 26.8632 95.2442C26.6562 95.2442 26.4813 95.3216 26.3392 95.4773C26.1971 95.6321 26.1266 95.8241 26.1266 96.0523C26.1266 96.279 26.1981 96.471 26.3408 96.6267C26.4837 96.7823 26.657 96.8605 26.8626 96.8605C27.059 96.8605 27.2228 96.7952 27.3561 96.6654C27.4886 96.5355 27.5712 96.3564 27.604 96.1298L28.0238 96.1935ZM30.2099 97.2187V96.0645C30.2099 95.8217 30.1416 95.6249 30.0051 95.4749C29.8688 95.324 29.6915 95.249 29.4731 95.249C29.2564 95.249 29.0791 95.3232 28.9402 95.4724C28.8015 95.6209 28.7315 95.8129 28.7315 96.0476C28.7315 96.2871 28.8029 96.4831 28.946 96.6363C29.0887 96.7887 29.2702 96.8654 29.4917 96.8654C29.5919 96.8654 29.6899 96.8476 29.7845 96.8129C29.8793 96.7782 29.9747 96.725 30.0703 96.6524V97.0983C29.9763 97.1526 29.8769 97.192 29.7733 97.2187C29.6689 97.2445 29.5598 97.2574 29.445 97.2574C29.3359 97.2574 29.2267 97.2405 29.1185 97.2066C29.0107 97.1727 28.9131 97.1251 28.8247 97.0638C28.6585 96.9485 28.5317 96.8041 28.4443 96.6315C28.3568 96.4589 28.3127 96.2669 28.3127 96.0556C28.3127 95.7088 28.4217 95.4224 28.6393 95.1966C28.8568 94.97 29.1328 94.8571 29.4684 94.8571C29.6889 94.8571 29.8911 94.9127 30.0743 95.0248C30.2572 95.1369 30.3985 95.291 30.4971 95.4861C30.5429 95.5749 30.5749 95.6717 30.5943 95.7765C30.6144 95.8813 30.6241 96.0379 30.6241 96.246V97.2187H30.2099ZM33.0799 94.9006V96.1653C33.0799 96.5024 32.9907 96.7694 32.8134 96.967C32.6352 97.1638 32.3969 97.2623 32.0975 97.2623C31.7996 97.2623 31.5622 97.1638 31.3856 96.967C31.2083 96.7694 31.1201 96.5024 31.1201 96.1653V94.9006H31.5293V96.2411C31.5293 96.4242 31.583 96.5726 31.6907 96.688C31.7981 96.8033 31.9345 96.8605 32.1015 96.8605C32.2692 96.8605 32.4057 96.8033 32.5117 96.688C32.6176 96.5726 32.6707 96.4242 32.6707 96.2411V94.9006H33.0799ZM33.5909 94.286H34.005V94.9006H34.7033V95.2926H34.005V96.2855C34.005 96.471 34.0501 96.6073 34.1399 96.6928C34.2307 96.7791 34.3744 96.8219 34.5718 96.8219H34.7033V97.2187H34.567C34.2411 97.2187 33.9964 97.1469 33.8343 97.0033C33.6721 96.8605 33.5909 96.6444 33.5909 96.3564V94.286ZM35.1367 97.2187V94.9006H35.551V97.2187H35.1367ZM35.0935 94.2416C35.0935 94.1723 35.1175 94.1126 35.1664 94.0642C35.2147 94.015 35.2748 93.9908 35.3454 93.9908C35.4153 93.9908 35.4747 94.015 35.5228 94.0626C35.5701 94.111 35.5943 94.1706 35.5943 94.2416C35.5943 94.3134 35.5701 94.3747 35.5228 94.4248C35.4747 94.4739 35.4153 94.4989 35.3454 94.4989C35.2765 94.4989 35.2171 94.4739 35.1674 94.4231C35.1184 94.3731 35.0935 94.3126 35.0935 94.2416ZM36.12 97.2187V94.6974C36.12 94.4094 36.201 94.194 36.3623 94.0507C36.5236 93.9077 36.7675 93.8359 37.0934 93.8359H37.3429V94.2328H37.103C36.904 94.2328 36.7587 94.2763 36.6663 94.3626C36.5749 94.4489 36.5292 94.5852 36.5292 94.7707V94.9006H37.3429V95.2926H36.5292V97.2187H36.12ZM39.5483 94.9006V96.1653C39.5483 96.5024 39.4593 96.7694 39.2819 96.967C39.1037 97.1638 38.8655 97.2623 38.5661 97.2623C38.2682 97.2623 38.0307 97.1638 37.8542 96.967C37.6768 96.7694 37.5886 96.5024 37.5886 96.1653V94.9006H37.9979V96.2411C37.9979 96.4242 38.0516 96.5726 38.159 96.688C38.2667 96.8033 38.4031 96.8605 38.57 96.8605C38.7378 96.8605 38.8743 96.8033 38.9803 96.688C39.0862 96.5726 39.1393 96.4242 39.1393 96.2411V94.9006H39.5483ZM40.0886 97.2187V93.8359H40.5027V97.2187H40.0886ZM41.0716 97.2187V93.8359H41.4857V97.2187H41.0716ZM43.9809 94.9006V96.1653C43.9809 96.4613 43.9165 96.6993 43.788 96.8775C43.6598 97.0566 43.4656 97.1783 43.2055 97.2429V98.2495H42.7913V97.2429C42.5313 97.1783 42.3381 97.0574 42.2112 96.8791C42.0843 96.7008 42.021 96.4629 42.021 96.1653V94.9006H42.4302V96.2411C42.4302 96.4242 42.484 96.5726 42.5916 96.688C42.699 96.8033 42.8354 96.8605 43.0024 96.8605C43.1704 96.8605 43.3067 96.8033 43.4127 96.688C43.5185 96.5726 43.5716 96.4242 43.5716 96.2411V94.9006H43.9809ZM45.821 97.2187V95.0716C45.821 94.6667 45.9172 94.3497 46.109 94.1207C46.3008 93.8924 46.5665 93.7778 46.9053 93.7778C47.2029 93.7778 47.4534 93.8682 47.6557 94.0496C47.8579 94.2311 47.9591 94.4521 47.9591 94.7118C47.9591 94.8554 47.927 94.9853 47.8635 95.1014C47.8001 95.2167 47.7047 95.3184 47.5777 95.4047C47.748 95.4789 47.8811 95.5886 47.9759 95.733C48.0705 95.8781 48.118 96.0427 48.118 96.2266C48.118 96.521 48.0143 96.7597 47.8066 96.9436C47.5987 97.1267 47.325 97.2187 46.9847 97.2187H46.4325V96.7928H46.9894C47.1933 96.7928 47.354 96.7412 47.471 96.638C47.5873 96.5355 47.646 96.3952 47.646 96.2169C47.646 96.0459 47.5873 95.9088 47.4695 95.808C47.3514 95.7064 47.1919 95.6556 46.9894 95.6556H46.4325V95.249H46.8273C47.0352 95.249 47.2005 95.203 47.3233 95.1103C47.4452 95.0183 47.5063 94.8933 47.5063 94.736C47.5063 94.5763 47.4518 94.4457 47.3418 94.3432C47.2328 94.2408 47.0915 94.1892 46.9189 94.1892C46.7141 94.1892 46.5537 94.2561 46.4381 94.3901C46.3219 94.5247 46.2639 94.7102 46.2639 94.949V97.2187H45.821ZM50.3089 97.2187V96.0645C50.3089 95.8217 50.2406 95.6249 50.1041 95.4749C49.9678 95.324 49.7905 95.249 49.572 95.249C49.3556 95.249 49.178 95.3232 49.0391 95.4724C48.9004 95.6209 48.8305 95.8129 48.8305 96.0476C48.8305 96.2871 48.902 96.4831 49.0449 96.6363C49.1876 96.7887 49.3692 96.8654 49.5906 96.8654C49.6908 96.8654 49.7888 96.8476 49.8834 96.8129C49.9782 96.7782 50.0736 96.725 50.1693 96.6524V97.0983C50.0754 97.1526 49.9758 97.192 49.8722 97.2187C49.768 97.2445 49.6588 97.2574 49.5442 97.2574C49.4349 97.2574 49.3257 97.2405 49.2175 97.2066C49.1099 97.1727 49.012 97.1251 48.9237 97.0638C48.7575 96.9485 48.6308 96.8041 48.5433 96.6315C48.4559 96.4589 48.4116 96.2669 48.4116 96.0556C48.4116 95.7088 48.5208 95.4224 48.7383 95.1966C48.9557 94.97 49.2319 94.8571 49.5674 94.8571C49.7881 94.8571 49.9903 94.9127 50.1732 95.0248C50.3562 95.1369 50.4975 95.291 50.5961 95.4861C50.642 95.5749 50.6741 95.6717 50.6933 95.7765C50.7133 95.8813 50.7229 96.0379 50.7229 96.246V97.2187H50.3089ZM51.2526 97.2187V93.8359H51.6669V97.2187H51.2526ZM53.9983 97.2187V96.0645C53.9983 95.8217 53.93 95.6249 53.7935 95.4749C53.657 95.324 53.4799 95.249 53.2614 95.249C53.0447 95.249 52.8674 95.3232 52.7285 95.4724C52.5898 95.6209 52.5199 95.8129 52.5199 96.0476C52.5199 96.2871 52.5912 96.4831 52.7341 96.6363C52.877 96.7887 53.0584 96.8654 53.2799 96.8654C53.3803 96.8654 53.4781 96.8476 53.5729 96.8129C53.6677 96.7782 53.763 96.725 53.8584 96.6524V97.0983C53.7647 97.1526 53.6652 97.192 53.5616 97.2187C53.4572 97.2445 53.3482 97.2574 53.2333 97.2574C53.1241 97.2574 53.0149 97.2405 52.9069 97.2066C52.799 97.1727 52.7013 97.1251 52.6131 97.0638C52.4469 96.9485 52.3201 96.8041 52.2327 96.6315C52.1451 96.4589 52.101 96.2669 52.101 96.0556C52.101 95.7088 52.2101 95.4224 52.4277 95.1966C52.6452 94.97 52.9211 94.8571 53.2566 94.8571C53.4773 94.8571 53.6795 94.9127 53.8627 95.0248C54.0456 95.1369 54.187 95.291 54.2855 95.4861C54.3312 95.5749 54.3633 95.6717 54.3828 95.7765C54.4028 95.8813 54.4124 96.0379 54.4124 96.246V97.2187H53.9983ZM54.9084 97.2187V95.954C54.9084 95.6168 54.9974 95.3498 55.1763 95.1522C55.3546 94.9554 55.5931 94.8571 55.8907 94.8571C56.1884 94.8571 56.426 94.9554 56.6026 95.1522C56.7799 95.3498 56.8681 95.6168 56.8681 95.954V97.2187H56.459V95.8781C56.459 95.6951 56.4059 95.5467 56.3001 95.4313C56.1941 95.316 56.0576 95.2587 55.8899 95.2587C55.7229 95.2587 55.5864 95.316 55.4788 95.4313C55.3714 95.5467 55.3176 95.6951 55.3176 95.8781V97.2187H54.9084ZM58.8287 95.2974H58.6498C58.3602 95.2974 58.1281 95.3668 57.9555 95.5063C57.783 95.6458 57.6972 95.8314 57.6972 96.0628C57.6972 96.2936 57.7838 96.4782 57.9573 96.6177C58.1305 96.7574 58.3617 96.8267 58.6498 96.8267H58.8287V97.2187H58.6219C58.21 97.2187 57.8818 97.113 57.6362 96.9008C57.3916 96.6888 57.2685 96.4073 57.2685 96.0564C57.2685 95.8669 57.3128 95.6902 57.4001 95.5265C57.4877 95.3627 57.612 95.2248 57.7734 95.1136C57.8866 95.0377 58.0063 94.9829 58.1331 94.9498C58.2598 94.9167 58.4227 94.9006 58.6219 94.9006H58.8287V95.2974ZM61.4427 96.1935C61.385 96.5242 61.2519 96.7863 61.0433 96.9783C60.8353 97.1711 60.5815 97.2671 60.2823 97.2671C60.1805 97.2671 60.0799 97.2534 59.9805 97.2259C59.8809 97.1977 59.7871 97.1574 59.6995 97.1042C59.5151 96.9904 59.3715 96.842 59.2694 96.6589C59.1676 96.4766 59.1169 96.275 59.1169 96.0564C59.1169 95.8951 59.1466 95.7426 59.2053 95.5975C59.2641 95.4523 59.3488 95.3217 59.4596 95.2047C59.5713 95.0894 59.6981 95.0022 59.8394 94.9417C59.9815 94.882 60.1306 94.8522 60.2871 94.8522C60.5208 94.8522 60.7294 94.9143 60.913 95.0386C61.0976 95.1619 61.2469 95.3426 61.3609 95.5797L59.8498 96.421L59.6755 96.1064L60.7974 95.4781C60.7285 95.4006 60.6507 95.3426 60.5647 95.3031C60.4781 95.2636 60.3842 95.2442 60.2823 95.2442C60.0753 95.2442 59.9003 95.3216 59.7582 95.4773C59.6161 95.6321 59.5456 95.8241 59.5456 96.0523C59.5456 96.279 59.6169 96.471 59.7599 96.6267C59.9027 96.7823 60.0761 96.8605 60.2815 96.8605C60.4781 96.8605 60.6418 96.7952 60.7752 96.6654C60.9076 96.5355 60.9902 96.3564 61.023 96.1298L61.4427 96.1935ZM64.0527 93.8359V95.8733C64.0527 96.0814 64.0431 96.2379 64.0231 96.3419C64.0036 96.446 63.9708 96.5412 63.9259 96.6282C63.8287 96.8267 63.6882 96.9824 63.5046 97.0945C63.3216 97.2066 63.1184 97.2623 62.8961 97.2623C62.5608 97.2623 62.2831 97.1485 62.0648 96.9203C61.8456 96.6928 61.7363 96.4049 61.7363 96.0564C61.7363 95.8999 61.7628 95.7507 61.8167 95.6096C61.8698 95.4676 61.9475 95.3402 62.0494 95.2281C62.153 95.1119 62.2767 95.0216 62.4209 94.9578C62.5654 94.8941 62.7164 94.8619 62.8729 94.8619C62.9877 94.8619 63.0969 94.8748 63.2012 94.9006C63.3056 94.9264 63.405 94.9668 63.4988 95.02V95.4668C63.4034 95.3942 63.3078 95.341 63.2132 95.3063C63.1184 95.2716 63.0206 95.2538 62.9202 95.2538C62.6987 95.2538 62.5173 95.3305 62.3745 95.4829C62.2315 95.6362 62.1602 95.8322 62.1602 96.0718C62.1602 96.3065 62.2301 96.4984 62.3689 96.6468C62.5077 96.796 62.6851 96.8702 62.9018 96.8702C63.1202 96.8702 63.2973 96.7952 63.4339 96.6444C63.5703 96.4944 63.6384 96.2975 63.6384 96.0548V93.8359H64.0527ZM65.7668 97.2187V96.7686H66.9176C67.1006 96.7686 67.2395 96.7323 67.3343 96.6597C67.4291 96.5871 67.4764 96.4814 67.4764 96.3412C67.4764 96.2323 67.4401 96.1379 67.3672 96.0564C67.2942 95.9749 67.1577 95.8838 66.9571 95.7814L66.3937 95.491C66.1865 95.3853 66.0324 95.2636 65.9322 95.1256C65.832 94.9885 65.7813 94.8312 65.7813 94.6546C65.7813 94.4013 65.8729 94.2021 66.0566 94.0553C66.2402 93.9093 66.4916 93.8359 66.8119 93.8359H67.7844V94.2812H66.6641C66.5357 94.2812 66.4328 94.3142 66.3577 94.3796C66.2813 94.4449 66.2437 94.5304 66.2437 94.6376C66.2437 94.7352 66.2765 94.82 66.3431 94.8918C66.4096 94.9635 66.5695 95.0643 66.8215 95.195L67.3118 95.4458C67.5269 95.5564 67.6858 95.6822 67.7892 95.8241C67.892 95.9661 67.9433 96.1306 67.9433 96.3177C67.9433 96.6033 67.8464 96.8243 67.6527 96.9824C67.4595 97.1396 67.185 97.2187 66.8303 97.2187H65.7668ZM70.3357 94.9006V96.1653C70.3357 96.5024 70.2467 96.7694 70.0694 96.967C69.8912 97.1638 69.6529 97.2623 69.3535 97.2623C69.0557 97.2623 68.8182 97.1638 68.6416 96.967C68.4643 96.7694 68.3761 96.5024 68.3761 96.1653V94.9006H68.7853V96.2411C68.7853 96.4242 68.839 96.5726 68.9464 96.688C69.0541 96.8033 69.1906 96.8605 69.3575 96.8605C69.5252 96.8605 69.6617 96.8033 69.7677 96.688C69.8736 96.5726 69.9267 96.4242 69.9267 96.2411V94.9006H70.3357ZM70.871 97.2187V94.9006H71.2524V95.2426C71.3229 95.107 71.42 95.0086 71.5438 94.9482C71.6672 94.8877 71.8342 94.8571 72.0437 94.8571H72.1521V95.2587H72.0886C71.8053 95.2587 71.6007 95.3265 71.4746 95.4619C71.3486 95.5975 71.2853 95.8185 71.2853 96.1241V97.2187H70.871ZM72.3984 98.2495V96.246C72.3984 96.0491 72.408 95.8959 72.428 95.787C72.4475 95.6781 72.4803 95.5781 72.525 95.4861C72.6206 95.2893 72.7603 95.1353 72.9441 95.024C73.1287 94.9126 73.3335 94.8571 73.559 94.8571C73.8942 94.8571 74.1704 94.97 74.3881 95.1966C74.6054 95.4224 74.7145 95.7088 74.7145 96.0556C74.7145 96.2137 74.6873 96.3645 74.6336 96.5081C74.5799 96.6509 74.5019 96.7791 74.3999 96.8904C74.2965 97.0073 74.173 97.0977 74.0284 97.1614C73.8838 97.2251 73.734 97.2574 73.5774 97.2574C73.4626 97.2574 73.3535 97.2445 73.2491 97.2187C73.1455 97.1929 73.0461 97.1526 72.9521 97.0993V96.6524C73.0461 96.725 73.1417 96.7782 73.2395 96.8129C73.3367 96.8476 73.4353 96.8654 73.5357 96.8654C73.7572 96.8654 73.9385 96.7887 74.0815 96.6363C74.2242 96.4831 74.2957 96.2871 74.2957 96.0476C74.2957 95.8144 74.226 95.6233 74.0861 95.4733C73.9466 95.3241 73.7676 95.249 73.5493 95.249C73.3309 95.249 73.1535 95.324 73.017 95.4749C72.8808 95.6249 72.8124 95.8217 72.8124 96.0645V98.2495H72.3984ZM75.1384 97.2187V94.9006H75.5196V95.2426C75.5902 95.107 75.6874 95.0086 75.811 94.9482C75.9344 94.8877 76.1014 94.8571 76.3109 94.8571H76.4193V95.2587H76.3559C76.0726 95.2587 75.8679 95.3265 75.7419 95.4619C75.6158 95.5975 75.5525 95.8185 75.5525 96.1241V97.2187H75.1384ZM76.7043 97.2187V94.9006H77.1183V97.2187H76.7043ZM76.661 94.2416C76.661 94.1723 76.6848 94.1126 76.7339 94.0642C76.782 94.015 76.8423 93.9908 76.9129 93.9908C76.9827 93.9908 77.0419 94.015 77.0903 94.0626C77.1376 94.111 77.1616 94.1706 77.1616 94.2416C77.1616 94.3134 77.1376 94.3747 77.0903 94.4248C77.0419 94.4739 76.9827 94.4989 76.9129 94.4989C76.8438 94.4989 76.7845 94.4739 76.7347 94.4231C76.6856 94.3731 76.661 94.3126 76.661 94.2416ZM77.5716 96.8219H78.5693C78.6695 96.8219 78.7483 96.8025 78.8052 96.763C78.8621 96.7235 78.891 96.6686 78.891 96.6001C78.891 96.5412 78.8695 96.4919 78.826 96.4508C78.7836 96.4097 78.7024 96.3637 78.5829 96.3137L78.1881 96.1532C77.956 96.0581 77.7963 95.9621 77.7082 95.8637C77.6206 95.7652 77.5767 95.6394 77.5767 95.4861C77.5767 95.2974 77.6432 95.1522 77.7763 95.0514C77.9096 94.9506 78.1013 94.9006 78.3503 94.9006H79.2042V95.2877H78.2402C78.1617 95.2877 78.1005 95.3047 78.0564 95.3393C78.0122 95.374 77.9907 95.4233 77.9907 95.4861C77.9907 95.5337 78.01 95.5757 78.0493 95.6136C78.0885 95.6515 78.1535 95.6894 78.2443 95.7274L78.6607 95.8975C78.92 96.0048 79.0942 96.108 79.1842 96.2072C79.2748 96.3065 79.3197 96.4323 79.3197 96.5855C79.3197 96.7992 79.2403 96.9589 79.0822 97.063C78.924 97.167 78.68 97.2187 78.3503 97.2187H77.5716V96.8219ZM79.7732 97.2187V94.9006H80.1873V97.2187H79.7732ZM79.7299 94.2416C79.7299 94.1723 79.7538 94.1126 79.8029 94.0642C79.851 94.015 79.9113 93.9908 79.9819 93.9908C80.0516 93.9908 80.1109 94.015 80.1592 94.0626C80.2065 94.111 80.2306 94.1706 80.2306 94.2416C80.2306 94.3134 80.2065 94.3747 80.1592 94.4248C80.1109 94.4739 80.0516 94.4989 79.9819 94.4989C79.9127 94.4989 79.8534 94.4739 79.8037 94.4231C79.7546 94.3731 79.7299 94.3126 79.7299 94.2416ZM80.7226 97.2187V95.954C80.7226 95.6168 80.8116 95.3498 80.9905 95.1522C81.1687 94.9554 81.4072 94.8571 81.7048 94.8571C82.0026 94.8571 82.2401 94.9554 82.4167 95.1522C82.5941 95.3498 82.6824 95.6168 82.6824 95.954V97.2187H82.2731V95.8781C82.2731 95.6951 82.22 95.5467 82.1143 95.4313C82.0082 95.316 81.8718 95.2587 81.704 95.2587C81.5371 95.2587 81.4005 95.316 81.2931 95.4313C81.1855 95.5467 81.1318 95.6951 81.1318 95.8781V97.2187H80.7226ZM85.399 97.0848C85.399 97.4606 85.2938 97.7574 85.0828 97.9736C84.8717 98.1898 84.5845 98.2979 84.2192 98.2979C84.1076 98.2979 83.9921 98.2866 83.8725 98.2648C83.752 98.243 83.6254 98.21 83.4921 98.1654L83.5821 97.7704C83.72 97.8155 83.8412 97.8486 83.9454 97.8695C84.0498 97.8905 84.1447 97.901 84.2288 97.901C84.4647 97.901 84.6493 97.8317 84.7834 97.6937C84.9175 97.555 84.985 97.3646 84.985 97.1227V96.0645C84.985 95.8217 84.9166 95.6249 84.7802 95.4749C84.6439 95.324 84.4665 95.249 84.248 95.249C84.0314 95.249 83.854 95.3232 83.7151 95.4724C83.5765 95.6209 83.5065 95.8129 83.5065 96.0476C83.5065 96.2871 83.5779 96.4831 83.7209 96.6363C83.8636 96.7887 84.0452 96.8654 84.2667 96.8654C84.3669 96.8654 84.4647 96.8476 84.5595 96.8129C84.6543 96.7782 84.7497 96.725 84.8453 96.6524V97.0993C84.7513 97.1526 84.6519 97.1929 84.5483 97.2187C84.4438 97.2445 84.3349 97.2574 84.22 97.2574C84.1108 97.2574 84.0017 97.2405 83.8935 97.2066C83.7857 97.1727 83.6881 97.1251 83.5997 97.0638C83.4336 96.9485 83.3067 96.8041 83.2193 96.6315C83.1317 96.4589 83.0876 96.2669 83.0876 96.0556C83.0876 95.7088 83.1967 95.4224 83.4143 95.1966C83.6318 94.97 83.9077 94.8571 84.2433 94.8571C84.4639 94.8571 84.6662 94.9127 84.8493 95.0248C85.0323 95.1369 85.1736 95.291 85.2722 95.4861C85.3178 95.5749 85.35 95.6717 85.3694 95.7765C85.3894 95.8813 85.399 96.0379 85.399 96.246V97.0848ZM85.9287 97.2187V93.8359H86.3428V97.2187H85.9287ZM88.838 94.9006V96.1653C88.838 96.4613 88.7736 96.6993 88.6454 96.8775C88.5169 97.0566 88.3227 97.1783 88.0626 97.2429V98.2495H87.6485V97.2429C87.3885 97.1783 87.1952 97.0574 87.0683 96.8791C86.9414 96.7008 86.8781 96.4629 86.8781 96.1653V94.9006H87.2874V96.2411C87.2874 96.4242 87.3411 96.5726 87.4487 96.688C87.5561 96.8033 87.6926 96.8605 87.8595 96.8605C88.0275 96.8605 88.1638 96.8033 88.2698 96.688C88.3756 96.5726 88.4287 96.4242 88.4287 96.2411V94.9006H88.838ZM90.5721 97.2187V96.7686H91.7229C91.9061 96.7686 92.0447 96.7323 92.1395 96.6597C92.2344 96.5871 92.2817 96.4814 92.2817 96.3412C92.2817 96.2323 92.2454 96.1379 92.1725 96.0564C92.0995 95.9749 91.963 95.8838 91.7624 95.7814L91.199 95.491C90.9918 95.3853 90.8379 95.2636 90.7375 95.1256C90.6372 94.9885 90.5867 94.8312 90.5867 94.6546C90.5867 94.4013 90.6781 94.2021 90.8619 94.0553C91.0455 93.9093 91.2968 93.8359 91.6171 93.8359H92.5897V94.2812H91.4694C91.3411 94.2812 91.2383 94.3142 91.163 94.3796C91.0866 94.4449 91.049 94.5304 91.049 94.6376C91.049 94.7352 91.0818 94.82 91.1483 94.8918C91.215 94.9635 91.3748 95.0643 91.6267 95.195L92.1171 95.4458C92.3322 95.5564 92.4911 95.6822 92.5947 95.8241C92.6973 95.9661 92.7486 96.1306 92.7486 96.3177C92.7486 96.6033 92.6516 96.8243 92.458 96.9824C92.2648 97.1396 91.9903 97.2187 91.6356 97.2187H90.5721ZM93.215 97.2187V94.9006H93.6291V97.2187H93.215ZM93.1717 94.2416C93.1717 94.1723 93.1957 94.1126 93.2447 94.0642C93.2929 94.015 93.3531 93.9908 93.4237 93.9908C93.4934 93.9908 93.5529 94.015 93.601 94.0626C93.6483 94.111 93.6726 94.1706 93.6726 94.2416C93.6726 94.3134 93.6483 94.3747 93.601 94.4248C93.5529 94.4739 93.4934 94.4989 93.4237 94.4989C93.3547 94.4989 93.2954 94.4739 93.2455 94.4231C93.1966 94.3731 93.1717 94.3126 93.1717 94.2416ZM94.1643 97.2187V95.8781C94.1643 95.5628 94.2461 95.3144 94.4109 95.1312C94.5754 94.9482 94.7969 94.8571 95.0752 94.8571C95.2182 94.8571 95.3498 94.8877 95.47 94.9482C95.5905 95.0086 95.6949 95.0974 95.7825 95.2135C95.8731 95.0958 95.9781 95.0071 96.0977 94.9466C96.2166 94.8869 96.3472 94.8571 96.4902 94.8571C96.7663 94.8571 96.9869 94.949 97.1523 95.1321C97.3176 95.316 97.4002 95.5644 97.4002 95.8781V97.2187H96.991V95.7999C96.991 95.6378 96.9445 95.5071 96.8521 95.4079C96.7597 95.3087 96.6395 95.2587 96.4902 95.2587C96.3408 95.2587 96.2206 95.3087 96.1282 95.4079C96.0359 95.5071 95.9893 95.6378 95.9893 95.7999V97.2187H95.5801V95.7999C95.5801 95.6378 95.5327 95.5071 95.4388 95.4079C95.3448 95.3087 95.2237 95.2587 95.0744 95.2587C94.9243 95.2587 94.8033 95.3087 94.7111 95.4079C94.6195 95.5071 94.5736 95.6378 94.5736 95.7999V97.2187H94.1643ZM97.9003 98.2495V96.246C97.9003 96.0491 97.9099 95.8959 97.9299 95.787C97.9494 95.6781 97.9822 95.5781 98.0269 95.4861C98.1225 95.2893 98.2623 95.1353 98.446 95.024C98.6306 94.9126 98.8354 94.8571 99.0609 94.8571C99.3961 94.8571 99.6724 94.97 99.8898 95.1966C100.107 95.4224 100.216 95.7088 100.216 96.0556C100.216 96.2137 100.189 96.3645 100.135 96.5081C100.082 96.6509 100.004 96.7791 99.9018 96.8904C99.7984 97.0073 99.6748 97.0977 99.5303 97.1614C99.3858 97.2251 99.2359 97.2574 99.0792 97.2574C98.9645 97.2574 98.8555 97.2445 98.7511 97.2187C98.6474 97.1929 98.548 97.1526 98.454 97.0993V96.6524C98.548 96.725 98.6436 96.7782 98.7414 96.8129C98.8386 96.8476 98.9372 96.8654 99.0377 96.8654C99.2591 96.8654 99.4404 96.7887 99.5834 96.6363C99.7261 96.4831 99.7976 96.2871 99.7976 96.0476C99.7976 95.8144 99.7276 95.6233 99.588 95.4733C99.4485 95.3241 99.2695 95.249 99.0512 95.249C98.8328 95.249 98.6554 95.324 98.519 95.4749C98.3827 95.6249 98.3143 95.8217 98.3143 96.0645V98.2495H97.9003ZM100.645 97.2187V93.8359H101.059V97.2187H100.645ZM103.814 96.1935C103.757 96.5242 103.623 96.7863 103.415 96.9783C103.207 97.1711 102.953 97.2671 102.654 97.2671C102.552 97.2671 102.451 97.2534 102.352 97.2259C102.252 97.1977 102.159 97.1574 102.071 97.1042C101.886 96.9904 101.743 96.842 101.641 96.6589C101.539 96.4766 101.488 96.275 101.488 96.0564C101.488 95.8951 101.518 95.7426 101.577 95.5975C101.635 95.4523 101.72 95.3217 101.831 95.2047C101.943 95.0894 102.07 95.0022 102.211 94.9417C102.353 94.882 102.502 94.8522 102.659 94.8522C102.892 94.8522 103.101 94.9143 103.285 95.0386C103.469 95.1619 103.619 95.3426 103.732 95.5797L102.221 96.421L102.047 96.1064L103.169 95.4781C103.1 95.4006 103.022 95.3426 102.936 95.3031C102.85 95.2636 102.756 95.2442 102.654 95.2442C102.447 95.2442 102.272 95.3216 102.13 95.4773C101.988 95.6321 101.917 95.8241 101.917 96.0523C101.917 96.279 101.989 96.471 102.131 96.6267C102.274 96.7823 102.448 96.8605 102.653 96.8605C102.85 96.8605 103.013 96.7952 103.147 96.6654C103.279 96.5355 103.362 96.3564 103.394 96.1298L103.814 96.1935ZM104.33 96.9775C104.33 96.8993 104.356 96.8323 104.41 96.7775C104.463 96.7235 104.53 96.696 104.61 96.696C104.688 96.696 104.755 96.7235 104.808 96.7775C104.862 96.8323 104.888 96.8993 104.888 96.9775C104.888 97.0533 104.861 97.1187 104.807 97.1719C104.752 97.2259 104.687 97.2525 104.61 97.2525C104.532 97.2525 104.465 97.2259 104.411 97.1719C104.357 97.1187 104.33 97.0533 104.33 96.9775Z" fill="#2B2A29"/>
<path d="M28.0259 75.1712H30.9457L35.2341 86.5723L39.4922 75.1712H42.3512L37.2415 88.773C37.0388 89.2214 36.765 89.5627 36.4204 89.797C36.0756 90.0313 35.66 90.1485 35.1734 90.1485C34.0784 90.1485 33.3788 89.6289 33.0748 88.5897L28.0259 75.1712ZM46.5787 82.8432L53.8478 78.8085C52.9354 77.8915 51.7999 77.433 50.4414 77.433C48.9612 77.433 47.7852 77.9628 46.9134 79.0225C46.0414 80.0821 45.6562 81.3251 45.7576 82.7515C45.8184 84.0761 46.2746 85.2172 47.1263 86.1749C47.9779 87.1327 49.1235 87.6013 50.5631 87.581C52.0433 87.5606 53.1534 87.1632 53.8935 86.3889C54.6336 85.6146 55.1455 84.4734 55.4294 82.9655L58.1059 83.3323C58.0653 84.3511 57.751 85.3853 57.163 86.4347C56.5749 87.4841 55.6981 88.3705 54.5322 89.094C53.3663 89.8173 51.9825 90.1893 50.3806 90.2096C49.0829 90.2096 47.8613 89.8734 46.7156 89.201C45.5701 88.5285 44.6575 87.6217 43.9784 86.4806C43.2991 85.3395 42.9594 84.1269 42.9594 82.8432C42.8986 80.2757 43.6489 78.3041 45.2102 76.9287C46.7714 75.5532 48.5152 74.8654 50.4414 74.8654C52.104 74.8654 53.5083 75.2475 54.6538 76.0116C55.7995 76.7758 56.7778 77.9424 57.5888 79.5114L47.7345 85.0134L46.5787 82.8432ZM60.8736 68.416H63.5501V89.8429H60.8736V68.416ZM67.0174 75.1712H69.6939V84.0047C69.7546 85.0643 70.1246 85.915 70.804 86.557C71.4832 87.1989 72.2791 87.5403 73.1915 87.581C74.2053 87.581 75.0468 87.2141 75.716 86.4806C76.3851 85.747 76.75 84.9217 76.8108 84.0047V75.1712H79.4873V83.8824C79.4873 85.696 78.8841 87.209 77.6777 88.4215C76.4712 89.634 74.9758 90.2096 73.1915 90.1485C71.4477 90.0874 69.9828 89.5117 68.7966 88.4215C67.6105 87.3313 67.0174 85.696 67.0174 83.5157V75.1712ZM85.5094 82.8432L92.7785 78.8085C91.866 77.8915 90.7305 77.433 89.372 77.433C87.8919 77.433 86.7158 77.9628 85.8439 79.0225C84.9721 80.0821 84.5869 81.3251 84.6882 82.7515C84.749 84.0761 85.2053 85.2172 86.0569 86.1749C86.9085 87.1327 88.054 87.6013 89.4937 87.581C90.9739 87.5606 92.084 87.1632 92.824 86.3889C93.5641 85.6146 94.0761 84.4734 94.36 82.9655L97.0365 83.3323C96.9959 84.3511 96.6817 85.3853 96.0937 86.4347C95.5056 87.4841 94.6287 88.3705 93.4628 89.094C92.297 89.8173 90.9131 90.1893 89.3112 90.2096C88.0135 90.2096 86.7918 89.8734 85.6463 89.201C84.5006 88.5285 83.5882 87.6217 82.9089 86.4806C82.2297 85.3395 81.8901 84.1269 81.8901 82.8432C81.8293 80.2757 82.5795 78.3041 84.1407 76.9287C85.702 75.5532 87.4458 74.8654 89.372 74.8654C91.0347 74.8654 92.4388 75.2475 93.5844 76.0116C94.73 76.7758 95.7084 77.9424 96.5194 79.5114L86.6651 85.0134L85.5094 82.8432Z" fill="#27386D"/>
<path fill-rule="evenodd" clip-rule="evenodd" d="M97.0761 69.4529C97.5627 69.4529 98.0375 69.5782 98.5018 69.8303C98.9649 70.0811 99.3269 70.4414 99.5853 70.9085C99.8437 71.377 99.9736 71.8653 99.9736 72.3721C99.9736 72.8749 99.8463 73.3592 99.5906 73.8224C99.3361 74.287 98.9793 74.6472 98.5189 74.9032C98.0585 75.1606 97.5771 75.2886 97.0761 75.2886C96.5737 75.2886 96.0923 75.1606 95.6319 74.9032C95.1715 74.6472 94.8135 74.287 94.5576 73.8224C94.3019 73.3592 94.1733 72.8749 94.1733 72.3721C94.1733 71.8653 94.3032 71.377 94.5629 70.9085C94.824 70.4414 95.186 70.0811 95.649 69.8303C96.1133 69.5782 96.5882 69.4529 97.0761 69.4529ZM97.0761 69.9359C96.6682 69.9359 96.2707 70.0414 95.8851 70.2513C95.4994 70.4611 95.1978 70.762 94.98 71.1526C94.7623 71.5433 94.6534 71.9497 94.6534 72.3721C94.6534 72.7931 94.761 73.1955 94.9748 73.5809C95.1886 73.9663 95.4877 74.2671 95.872 74.4823C96.2563 74.6974 96.6577 74.8056 97.0761 74.8056C97.4932 74.8056 97.8945 74.6974 98.2789 74.4823C98.6632 74.2671 98.9623 73.9663 99.1748 73.5809C99.3873 73.1955 99.4935 72.7931 99.4935 72.3721C99.4935 71.9497 99.3846 71.5433 99.1682 71.1526C98.9518 70.762 98.6501 70.4611 98.2631 70.2513C97.8762 70.0414 97.4801 69.9359 97.0761 69.9359ZM95.8024 73.9821V70.8465H96.8754C97.2427 70.8465 97.5076 70.8755 97.6715 70.9336C97.8368 70.9916 97.9667 71.0919 98.0651 71.2371C98.1621 71.381 98.2107 71.5341 98.2107 71.6964C98.2107 71.9247 98.1294 72.1252 97.9654 72.2942C97.8028 72.4644 97.5863 72.5594 97.3161 72.5805C97.4263 72.6268 97.5155 72.6822 97.5811 72.7468C97.707 72.8696 97.8604 73.0768 98.0428 73.3684L98.4232 73.9821H97.8119L97.5338 73.4885C97.3161 73.0992 97.139 72.8551 97.0053 72.7574C96.9134 72.6861 96.7797 72.6505 96.6026 72.6518H96.3061V73.9821H95.8024ZM96.3061 72.2164H96.9174C97.2099 72.2164 97.4092 72.1727 97.5155 72.0857C97.6217 71.9986 97.6755 71.8824 97.6755 71.7399C97.6755 71.6475 97.6493 71.5644 97.5981 71.4918C97.547 71.4179 97.4761 71.3638 97.3856 71.3281C97.2938 71.2926 97.1259 71.274 96.8793 71.274H96.3061V72.2164Z" fill="#27386D"/>
</g>
<defs>
<filter id="filter0_d_119_4641" x="0" y="0" width="128" height="116.813" filterUnits="userSpaceOnUse" color-interpolation-filters="sRGB">
<feFlood flood-opacity="0" result="BackgroundImageFix"/>
<feColorMatrix in="SourceAlpha" type="matrix" values="0 0 0 0 0 0 0 0 0 0 0 0 0 0 0 0 0 0 127 0" result="hardAlpha"/>
<feOffset dy="4"/>
<feGaussianBlur stdDeviation="2"/>
<feComposite in2="hardAlpha" operator="out"/>
<feColorMatrix type="matrix" values="0 0 0 0 0 0 0 0 0 0 0 0 0 0 0 0 0 0 0.25 0"/>
<feBlend mode="normal" in2="BackgroundImageFix" result="effect1_dropShadow_119_4641"/>
<feBlend mode="normal" in="SourceGraphic" in2="effect1_dropShadow_119_4641" result="shape"/>
</filter>
<linearGradient id="paint0_linear_119_4641" x1="64.0001" y1="87.0505" x2="64.0001" y2="21.7629" gradientUnits="userSpaceOnUse">
<stop stop-color="#008A92"/>
<stop offset="1" stop-color="#66C3D0"/>
</linearGradient>
<radialGradient id="paint1_radial_119_4641" cx="0" cy="0" r="1" gradientUnits="userSpaceOnUse" gradientTransform="translate(66.1134 40.4698) rotate(-180) scale(1.56549 1.57508)">
<stop stop-color="white"/>
<stop offset="1" stop-color="#0089C3"/>
</radialGradient>
<radialGradient id="paint2_radial_119_4641" cx="0" cy="0" r="1" gradientUnits="userSpaceOnUse" gradientTransform="translate(66.061 39.9009) rotate(-180) scale(1.5541 1.56362)">
<stop stop-color="#E2F7FF"/>
<stop offset="0.631373" stop-color="#71C9E5"/>
<stop offset="0.85098" stop-color="#009CCC"/>
<stop offset="1" stop-color="#008ECC"/>
</radialGradient>
<radialGradient id="paint3_radial_119_4641" cx="0" cy="0" r="1" gradientUnits="userSpaceOnUse" gradientTransform="translate(68.9828 39.7147) rotate(-180) scale(12.8154 12.8939)">
<stop stop-color="#E2F7FF"/>
<stop offset="0.611765" stop-color="#71C9E5"/>
<stop offset="0.878431" stop-color="#009CCC"/>
<stop offset="1" stop-color="#0092CC"/>
</radialGradient>
<linearGradient id="paint4_linear_119_4641" x1="56.8146" y1="47.2494" x2="57.5665" y2="43.2128" gradientUnits="userSpaceOnUse">
<stop stop-color="#E2F7FF"/>
<stop offset="0.658824" stop-color="#CBE9F2"/>
<stop offset="1" stop-color="#B3DAE4"/>
</linearGradient>
<linearGradient id="paint5_linear_119_4641" x1="59.642" y1="50.7939" x2="71.1269" y2="50.7939" gradientUnits="userSpaceOnUse">
<stop stop-color="#E2F7FF"/>
<stop offset="0.2" stop-color="#D1F0FB"/>
<stop offset="0.301961" stop-color="#BFE8F6"/>
<stop offset="1" stop-color="#6EC8E4"/>
</linearGradient>
</defs>
</svg>
