<svg width="180" height="180" viewBox="0 0 180 180" fill="none" xmlns="http://www.w3.org/2000/svg">
<rect width="180" height="180" rx="24" fill="white"/>
<path fill-rule="evenodd" clip-rule="evenodd" d="M96.9108 91.1181L96.9347 91.1396L109.74 68.8851L122.535 46.6501C123.33 45.4315 123.792 43.9748 123.792 42.4097C123.792 38.1272 120.332 34.6555 116.064 34.6555C115.988 34.6555 115.912 34.6568 115.837 34.659L115.838 34.6555H96.9467C98.0381 37.6704 99.3931 40.6135 100.854 43.5343C102.394 46.6132 104.069 49.6619 105.473 52.8033C106.601 55.3279 107.696 58.2478 107.696 61.0482C107.696 70.8597 100.616 79.0361 90.5994 79.0361C80.5245 79.0361 72.6716 69.4225 72.6716 59.6784C72.6716 58.5801 72.7722 57.4853 72.9631 56.4041C74.0456 50.2699 77.9978 44.7565 81.6315 39.8599C82.9082 38.1396 84.219 36.4183 85.4615 34.6555H64.0817L64.0818 34.6561C64.0626 34.656 64.0433 34.6555 64.0239 34.6555C59.7556 34.6555 56.2954 38.1272 56.2954 42.4097C56.2954 43.9751 56.7581 45.4318 57.5532 46.6505L70.3475 68.8851L83.3359 91.457L83.3545 91.4427C84.692 93.7558 87.1869 95.3116 90.0439 95.3116C93.0328 95.3116 95.6251 93.6091 96.9108 91.1181Z" fill="#182755"/>
<path d="M105.988 61.0481C105.988 70.1138 99.4944 77.463 90.459 77.463C81.4241 77.463 74.0991 68.744 74.0991 59.6783C74.0991 45.3844 92.6365 34.3018 92.6365 21C92.6365 38.6412 105.988 51.9827 105.988 61.0481Z" fill="url(#paint0_radial_115_1862)"/>
<path d="M90.4594 77.0669C86.2787 77.0669 82.2749 75.1627 79.1853 71.7058C76.2044 68.3699 74.4946 63.9861 74.4946 59.6785C74.4946 52.5347 79.2937 46.0958 83.9347 39.8689C87.6268 34.9152 91.1574 30.1777 92.4819 25.1258C93.4766 33.7744 97.3778 41.368 100.598 47.636C103.278 52.8532 105.593 57.3589 105.593 61.0483C105.593 65.3875 104.076 69.4139 101.323 72.3855C98.5254 75.4041 94.6673 77.0669 90.4594 77.0669Z" fill="url(#paint1_radial_115_1862)"/>
<path d="M100.598 47.636C97.3779 41.368 93.4767 33.7744 92.482 25.1258C91.7508 27.915 90.3463 30.6084 88.6143 33.295C89.7658 36.9149 91.188 40.9677 92.6355 44.0463C96.0015 51.2061 102.194 56.3394 101.791 62.5531C101.514 66.8076 100.164 72.4541 94.8912 76.4166C97.341 75.672 99.5464 74.3027 101.323 72.3855C104.076 69.4139 105.593 65.3875 105.593 61.0483C105.593 57.3589 103.278 52.8532 100.598 47.636Z" fill="url(#paint2_radial_115_1862)"/>
<path d="M78.037 58.3207C77.4653 58.3275 76.8442 58.3833 76.1725 58.5055C76.1563 58.7261 76.1475 58.9449 76.1475 59.1615C76.1475 61.0552 76.8774 63.7355 78.8541 65.467C78.3921 63.8877 78.0279 61.7141 78.0279 58.7844C78.0279 58.6301 78.0315 58.4755 78.037 58.3207Z" fill="url(#paint3_linear_115_1862)"/>
<path d="M84.2159 40.6367C84.2159 40.6367 74.7207 51.2566 74.7207 58.9874C74.7207 66.7179 79.2348 73.2772 84.4494 75.62C80.9471 73.3553 75.6549 67.3425 75.6549 59.2996C75.6549 55.1785 76.5109 51.647 84.2159 40.6367Z" fill="#C6E9F6"/>
<path d="M81.2423 49.5714C80.9149 50.4685 81.0052 51.327 81.4437 51.4884C81.8826 51.6493 82.504 51.0528 82.8318 50.1552C83.159 49.2577 83.069 48.3992 82.6299 48.2381C82.1913 48.0766 81.5699 48.6737 81.2423 49.5714Z" fill="white"/>
<path d="M81.8584 46.7071C81.6732 47.2143 81.7244 47.699 81.9722 47.7903C82.2199 47.8815 82.5712 47.5441 82.7561 47.0371C82.9413 46.5299 82.8902 46.0447 82.6423 45.954C82.3945 45.8627 82.0434 46.1999 81.8584 46.7071Z" fill="white"/>
<path d="M103.072 67.8855C103.072 67.8855 99.5002 76.2817 91.1315 76.2817C82.7642 76.2817 81.2594 71.3766 82.2941 70.2441C83.8249 68.1654 86.4435 70.6917 91.3202 72.5085C97.1495 72.5085 100.346 71.1879 103.072 67.8855Z" fill="url(#paint4_linear_115_1862)"/>
<path fill-rule="evenodd" clip-rule="evenodd" d="M15 157.102V153.17C15 152.428 15.1765 151.848 15.5283 151.428C15.8801 151.01 16.3671 150.8 16.9884 150.8C17.5348 150.8 17.9938 150.966 18.3648 151.298C18.736 151.63 18.9214 152.035 18.9214 152.511C18.9214 152.774 18.8625 153.012 18.746 153.224C18.6299 153.435 18.4549 153.622 18.2222 153.78C18.5343 153.915 18.7787 154.116 18.9523 154.381C19.1261 154.647 19.2128 154.948 19.2128 155.285C19.2128 155.824 19.0232 156.261 18.6416 156.598C18.2603 156.933 17.7583 157.102 17.1343 157.102H16.1216V156.322H17.1432C17.517 156.322 17.8116 156.227 18.0266 156.038C18.2398 155.851 18.3471 155.593 18.3471 155.267C18.3471 154.954 18.2398 154.703 18.0233 154.518C17.8068 154.332 17.5141 154.239 17.1432 154.239H16.1216V153.495H16.8458C17.227 153.495 17.5303 153.41 17.7557 153.241C17.9792 153.072 18.0909 152.843 18.0909 152.555C18.0909 152.263 17.9913 152.023 17.7891 151.836C17.5891 151.648 17.3303 151.554 17.0139 151.554C16.6382 151.554 16.3436 151.676 16.1316 151.922C15.9183 152.168 15.8125 152.508 15.8125 152.945V157.102H15ZM24.0091 155.224C23.903 155.83 23.6588 156.31 23.2762 156.661C22.8946 157.014 22.4292 157.19 21.8802 157.19C21.6935 157.19 21.5093 157.165 21.3271 157.115C21.1443 157.063 20.9719 156.989 20.8116 156.892C20.4731 156.684 20.2094 156.412 20.0227 156.076C19.8357 155.743 19.7426 155.373 19.7426 154.973C19.7426 154.678 19.7974 154.399 19.9048 154.133C20.0124 153.867 20.1683 153.628 20.3712 153.413C20.576 153.202 20.8088 153.043 21.0679 152.932C21.3285 152.822 21.602 152.768 21.8891 152.768C22.3178 152.768 22.7005 152.882 23.0375 153.109C23.3758 153.335 23.6497 153.666 23.8589 154.1L21.0869 155.641L20.7671 155.065L22.8255 153.914C22.699 153.772 22.556 153.666 22.3983 153.594C22.2394 153.521 22.0674 153.486 21.8802 153.486C21.5006 153.486 21.1797 153.628 20.919 153.913C20.6584 154.196 20.529 154.548 20.529 154.966C20.529 155.381 20.6601 155.732 20.9219 156.017C21.1841 156.302 21.502 156.446 21.8792 156.446C22.2394 156.446 22.5398 156.326 22.7842 156.088C23.0273 155.851 23.1788 155.523 23.239 155.108L24.0091 155.224ZM28.0191 157.102V154.988C28.0191 154.543 27.8938 154.183 27.6434 153.908C27.3934 153.632 27.0681 153.495 26.6674 153.495C26.27 153.495 25.9447 153.63 25.6899 153.904C25.4355 154.176 25.3073 154.527 25.3073 154.957C25.3073 155.395 25.4381 155.754 25.7006 156.035C25.9623 156.314 26.2954 156.455 26.7016 156.455C26.8854 156.455 27.0652 156.422 27.2387 156.359C27.4125 156.295 27.5875 156.198 27.7629 156.065V156.881C27.5905 156.98 27.4081 157.053 27.2181 157.102C27.0266 157.149 26.8266 157.172 26.6159 157.172C26.4159 157.172 26.2156 157.141 26.0171 157.079C25.8193 157.017 25.6403 156.93 25.4782 156.818C25.1734 156.607 24.9407 156.342 24.7805 156.026C24.6198 155.71 24.5389 155.359 24.5389 154.972C24.5389 154.336 24.7389 153.812 25.1381 153.399C25.537 152.984 26.0432 152.777 26.6589 152.777C27.0633 152.777 27.4342 152.879 27.7703 153.084C28.1058 153.289 28.365 153.571 28.5459 153.929C28.6298 154.091 28.6885 154.269 28.7242 154.461C28.761 154.652 28.7787 154.939 28.7787 155.32V157.102H28.0191ZM33.2834 152.856V155.172C33.2834 155.79 33.1198 156.279 32.7945 156.641C32.4677 157.001 32.0305 157.181 31.4813 157.181C30.935 157.181 30.4995 157.001 30.1756 156.641C29.8503 156.279 29.6885 155.79 29.6885 155.172V152.856H30.4391V155.311C30.4391 155.647 30.5377 155.918 30.7351 156.13C30.9321 156.341 31.1824 156.446 31.4887 156.446C31.7964 156.446 32.0468 156.341 32.2412 156.13C32.4353 155.918 32.5327 155.647 32.5327 155.311V152.856H33.2834ZM34.2208 151.731H34.9803V152.856H36.2611V153.574H34.9803V155.393C34.9803 155.732 35.063 155.982 35.2278 156.138C35.3943 156.297 35.6578 156.375 36.02 156.375H36.2611V157.102H36.0111C35.4134 157.102 34.9645 156.97 34.6671 156.707C34.3697 156.446 34.2208 156.05 34.2208 155.523V151.731ZM37.0562 157.102V152.856H37.8161V157.102H37.0562ZM36.9768 151.65C36.9768 151.523 37.021 151.413 37.1106 151.325C37.1993 151.235 37.3095 151.19 37.4389 151.19C37.5672 151.19 37.676 151.235 37.7643 151.322C37.8511 151.41 37.8955 151.52 37.8955 151.65C37.8955 151.781 37.8511 151.893 37.7643 151.985C37.676 152.075 37.5672 152.121 37.4389 152.121C37.3125 152.121 37.2036 152.075 37.1125 151.982C37.0225 151.89 36.9768 151.78 36.9768 151.65ZM38.8598 157.102V152.484C38.8598 151.957 39.0083 151.563 39.3042 151.3C39.6001 151.038 40.0476 150.907 40.6453 150.907H41.1029V151.633H40.6629C40.2978 151.633 40.0313 151.713 39.8619 151.871C39.6943 152.029 39.6104 152.279 39.6104 152.619V152.856H41.1029V153.574H39.6104V157.102H38.8598ZM45.1483 152.856V155.172C45.1483 155.79 44.985 156.279 44.6596 156.641C44.3328 157.001 43.8958 157.181 43.3466 157.181C42.8002 157.181 42.3646 157.001 42.0408 156.641C41.7154 156.279 41.5536 155.79 41.5536 155.172V152.856H42.3043V155.311C42.3043 155.647 42.4028 155.918 42.6 156.13C42.7974 156.341 43.0476 156.446 43.3538 156.446C43.6616 156.446 43.9119 156.341 44.1064 156.13C44.3006 155.918 44.398 155.647 44.398 155.311V152.856H45.1483ZM46.1393 157.102V150.907H46.8988V157.102H46.1393ZM47.9425 157.102V150.907H48.7019V157.102H47.9425ZM53.2788 152.856V155.172C53.2788 155.715 53.1608 156.15 52.9251 156.477C52.6899 156.805 52.3337 157.028 51.8565 157.146V158.989H51.0969V157.146C50.6199 157.028 50.2655 156.806 50.0327 156.48C49.8 156.153 49.6839 155.718 49.6839 155.172V152.856H50.4345V155.311C50.4345 155.647 50.5331 155.918 50.7305 156.13C50.9275 156.341 51.1778 156.446 51.4841 156.446C51.7922 156.446 52.0422 156.341 52.2366 156.13C52.4307 155.918 52.5281 155.647 52.5281 155.311V152.856H53.2788ZM56.6542 157.102V153.17C56.6542 152.428 56.8307 151.848 57.1825 151.428C57.5343 151.01 58.0217 150.8 58.643 150.8C59.189 150.8 59.6485 150.966 60.0194 151.298C60.3904 151.63 60.576 152.035 60.576 152.511C60.576 152.774 60.5171 153.012 60.4006 153.224C60.2845 153.435 60.1095 153.622 59.8764 153.78C60.1888 153.915 60.433 154.116 60.6069 154.381C60.7804 154.647 60.8674 154.948 60.8674 155.285C60.8674 155.824 60.6774 156.261 60.2962 156.598C59.9149 156.933 59.4129 157.102 58.7887 157.102H57.7758V156.322H58.7974C59.1713 156.322 59.4661 156.227 59.6808 156.038C59.894 155.851 60.0017 155.593 60.0017 155.267C60.0017 154.954 59.894 154.703 59.6779 154.518C59.4614 154.332 59.1687 154.239 58.7974 154.239H57.7758V153.495H58.5C58.8813 153.495 59.1846 153.41 59.4099 153.241C59.6334 153.072 59.7455 152.843 59.7455 152.555C59.7455 152.263 59.6455 152.023 59.4437 151.836C59.2437 151.648 58.9846 151.554 58.668 151.554C58.2923 151.554 57.9982 151.676 57.7862 151.922C57.5729 152.168 57.4666 152.508 57.4666 152.945V157.102H56.6542ZM64.8862 157.102V154.988C64.8862 154.543 64.761 154.183 64.5106 153.908C64.2605 153.632 63.9353 153.495 63.5346 153.495C63.1376 153.495 62.8119 153.63 62.5571 153.904C62.3027 154.176 62.1744 154.527 62.1744 154.957C62.1744 155.395 62.3056 155.754 62.5677 156.035C62.8295 156.314 63.1626 156.455 63.5687 156.455C63.7525 156.455 63.9323 156.422 64.1058 156.359C64.2797 156.295 64.4547 156.198 64.6301 156.065V156.881C64.458 156.98 64.2753 157.053 64.0853 157.102C63.894 157.149 63.6937 157.172 63.4835 157.172C63.2831 157.172 63.0828 157.141 62.8843 157.079C62.6869 157.017 62.5073 156.93 62.3453 156.818C62.0405 156.607 61.8082 156.342 61.6476 156.026C61.4872 155.71 61.4061 155.359 61.4061 154.972C61.4061 154.336 61.6064 153.812 62.0053 153.399C62.4041 152.984 62.9106 152.777 63.5261 152.777C63.9309 152.777 64.3018 152.879 64.6373 153.084C64.973 153.289 65.2322 153.571 65.413 153.929C65.4972 154.091 65.5561 154.269 65.5913 154.461C65.6281 154.652 65.6457 154.939 65.6457 155.32V157.102H64.8862ZM66.6173 157.102V150.907H67.3772V157.102H66.6173ZM71.6537 157.102V154.988C71.6537 154.543 71.5284 154.183 71.278 153.908C71.0277 153.632 70.7027 153.495 70.302 153.495C69.9046 153.495 69.5793 153.63 69.3245 153.904C69.0701 154.176 68.9418 154.527 68.9418 154.957C68.9418 155.395 69.0727 155.754 69.3347 156.035C69.5969 156.314 69.9296 156.455 70.3359 156.455C70.52 156.455 70.6994 156.422 70.8733 156.359C71.0472 156.295 71.2221 156.198 71.3971 156.065V156.881C71.2251 156.98 71.0427 157.053 70.8527 157.102C70.6611 157.149 70.4611 157.172 70.2505 157.172C70.0502 157.172 69.8498 157.141 69.6517 157.079C69.4539 157.017 69.2745 156.93 69.1127 156.818C68.8079 156.607 68.5753 156.342 68.415 156.026C68.2544 155.71 68.1735 155.359 68.1735 154.972C68.1735 154.336 68.3735 153.812 68.7727 153.399C69.1716 152.984 69.6778 152.777 70.2932 152.777C70.6979 152.777 71.0688 152.879 71.4049 153.084C71.7404 153.289 71.9997 153.571 72.1804 153.929C72.2643 154.091 72.3232 154.269 72.3589 154.461C72.3956 154.652 72.4132 154.939 72.4132 155.32V157.102H71.6537ZM73.3231 157.102V154.785C73.3231 154.168 73.4862 153.679 73.8145 153.317C74.1414 152.957 74.5789 152.777 75.1248 152.777C75.671 152.777 76.1067 152.957 76.4306 153.317C76.7558 153.679 76.9176 154.168 76.9176 154.785V157.102H76.1673V154.647C76.1673 154.311 76.0699 154.04 75.8758 153.828C75.6814 153.617 75.4309 153.512 75.1233 153.512C74.817 153.512 74.5667 153.617 74.3693 153.828C74.1723 154.04 74.0737 154.311 74.0737 154.647V157.102H73.3231ZM80.514 153.583H80.1857C79.6546 153.583 79.2289 153.71 78.9123 153.966C78.5958 154.221 78.4384 154.561 78.4384 154.985C78.4384 155.407 78.5973 155.746 78.9156 156.001C79.2332 156.257 79.6574 156.384 80.1857 156.384H80.514V157.102H80.1346C79.3791 157.102 78.7771 156.908 78.3266 156.52C77.8779 156.131 77.652 155.616 77.652 154.973C77.652 154.626 77.7333 154.302 77.8936 154.003C78.0542 153.703 78.2822 153.45 78.5782 153.246C78.7858 153.108 79.0054 153.007 79.238 152.947C79.4704 152.886 79.7692 152.856 80.1346 152.856H80.514V153.583ZM85.3088 155.224C85.2029 155.83 84.9588 156.31 84.5761 156.661C84.1946 157.014 83.7291 157.19 83.1803 157.19C82.9936 157.19 82.809 157.165 82.6266 157.115C82.444 157.063 82.272 156.989 82.1113 156.892C81.7731 156.684 81.5095 156.412 81.3224 156.076C81.1356 155.743 81.0426 155.373 81.0426 154.973C81.0426 154.678 81.0971 154.399 81.2047 154.133C81.3125 153.867 81.468 153.628 81.6713 153.413C81.8761 153.202 82.1087 153.043 82.3679 152.932C82.6285 152.822 82.9021 152.768 83.1891 152.768C83.6178 152.768 84.0005 152.882 84.3372 153.109C84.6757 153.335 84.9497 153.666 85.1588 154.1L82.387 155.641L82.0672 155.065L84.125 153.914C83.9987 153.772 83.856 153.666 83.6982 153.594C83.5395 153.521 83.3671 153.486 83.1803 153.486C82.8005 153.486 82.4796 153.628 82.219 153.913C81.9583 154.196 81.8289 154.548 81.8289 154.966C81.8289 155.381 81.9598 155.732 82.222 156.017C82.484 156.302 82.8021 156.446 83.1788 156.446C83.5395 156.446 83.8398 156.326 84.0843 156.088C84.3272 155.851 84.4787 155.523 84.539 155.108L85.3088 155.224ZM90.0963 150.907V154.638C90.0963 155.019 90.0786 155.305 90.0419 155.496C90.0062 155.687 89.946 155.861 89.8636 156.02C89.6853 156.384 89.4277 156.669 89.0909 156.874C88.7552 157.079 88.3824 157.181 87.9747 157.181C87.3597 157.181 86.8503 156.973 86.4498 156.555C86.0478 156.138 85.8474 155.611 85.8474 154.973C85.8474 154.687 85.8959 154.413 85.9948 154.155C86.0922 153.895 86.2348 153.661 86.4216 153.456C86.6116 153.243 86.8385 153.078 87.1031 152.961C87.3682 152.845 87.6451 152.786 87.9321 152.786C88.1428 152.786 88.3431 152.809 88.5343 152.856C88.7259 152.904 88.9081 152.978 89.0802 153.075V153.893C88.9052 153.76 88.7298 153.663 88.5563 153.599C88.3824 153.536 88.203 153.503 88.0189 153.503C87.6127 153.503 87.2799 153.644 87.0179 153.923C86.7557 154.203 86.6248 154.562 86.6248 155.001C86.6248 155.431 86.7531 155.782 87.0076 156.054C87.2623 156.328 87.5877 156.463 87.9851 156.463C88.3858 156.463 88.7107 156.326 88.9611 156.05C89.2114 155.775 89.3364 155.415 89.3364 154.97V150.907H90.0963ZM93.2405 157.102V156.277H95.3513C95.687 156.277 95.9418 156.211 96.1157 156.078C96.2895 155.945 96.3762 155.751 96.3762 155.495C96.3762 155.295 96.3097 155.122 96.1759 154.973C96.042 154.824 95.7918 154.657 95.4237 154.469L94.3904 153.938C94.0103 153.744 93.7276 153.521 93.5437 153.269C93.36 153.017 93.267 152.729 93.267 152.406C93.267 151.942 93.435 151.577 93.772 151.309C94.1088 151.041 94.5699 150.907 95.1573 150.907H96.9413V151.722H94.8863C94.6508 151.722 94.4621 151.783 94.3242 151.902C94.1842 152.022 94.1151 152.179 94.1151 152.375C94.1151 152.554 94.1753 152.709 94.2975 152.84C94.4195 152.972 94.7128 153.156 95.1749 153.396L96.0744 153.855C96.469 154.057 96.7604 154.288 96.9501 154.548C97.1387 154.808 97.2328 155.109 97.2328 155.452C97.2328 155.975 97.0549 156.379 96.6997 156.669C96.3453 156.957 95.8418 157.102 95.1911 157.102H93.2405ZM101.621 152.856V155.172C101.621 155.79 101.458 156.279 101.132 156.641C100.806 157.001 100.369 157.181 99.8193 157.181C99.2731 157.181 98.8375 157.001 98.5136 156.641C98.1883 156.279 98.0265 155.79 98.0265 155.172V152.856H98.7772V155.311C98.7772 155.647 98.8757 155.918 99.0727 156.13C99.2701 156.341 99.5206 156.446 99.8267 156.446C100.134 156.446 100.385 156.341 100.579 156.13C100.773 155.918 100.871 155.647 100.871 155.311V152.856H101.621ZM102.603 157.102V152.856H103.302V153.483C103.432 153.235 103.61 153.054 103.837 152.944C104.063 152.833 104.37 152.777 104.754 152.777H104.953V153.512H104.836C104.317 153.512 103.941 153.636 103.71 153.884C103.479 154.133 103.363 154.537 103.363 155.097V157.102H102.603ZM105.405 158.989V155.32C105.405 154.96 105.422 154.679 105.459 154.48C105.495 154.28 105.555 154.097 105.637 153.929C105.812 153.568 106.068 153.286 106.406 153.082C106.744 152.879 107.12 152.777 107.533 152.777C108.148 152.777 108.655 152.984 109.054 153.399C109.453 153.812 109.653 154.336 109.653 154.972C109.653 155.261 109.603 155.537 109.505 155.8C109.406 156.062 109.263 156.297 109.076 156.5C108.886 156.715 108.66 156.88 108.394 156.997C108.129 157.113 107.854 157.172 107.567 157.172C107.357 157.172 107.157 157.149 106.965 157.102C106.775 157.054 106.593 156.98 106.42 156.883V156.065C106.593 156.198 106.768 156.295 106.947 156.359C107.126 156.422 107.307 156.455 107.491 156.455C107.897 156.455 108.23 156.314 108.492 156.035C108.754 155.754 108.885 155.395 108.885 154.957C108.885 154.53 108.757 154.18 108.5 153.905C108.244 153.632 107.916 153.495 107.516 153.495C107.115 153.495 106.79 153.632 106.539 153.908C106.289 154.183 106.164 154.543 106.164 154.988V158.989H105.405ZM110.431 157.102V152.856H111.13V153.483C111.259 153.235 111.438 153.054 111.664 152.944C111.891 152.833 112.197 152.777 112.581 152.777H112.78V153.512H112.664C112.144 153.512 111.769 153.636 111.538 153.884C111.306 154.133 111.19 154.537 111.19 155.097V157.102H110.431ZM113.303 157.102V152.856H114.062V157.102H113.303ZM113.223 151.65C113.223 151.523 113.267 151.413 113.357 151.325C113.445 151.235 113.556 151.19 113.685 151.19C113.813 151.19 113.922 151.235 114.011 151.322C114.098 151.41 114.142 151.52 114.142 151.65C114.142 151.781 114.098 151.893 114.011 151.985C113.922 152.075 113.813 152.121 113.685 152.121C113.559 152.121 113.45 152.075 113.359 151.982C113.269 151.89 113.223 151.78 113.223 151.65ZM114.894 156.375H116.724C116.908 156.375 117.052 156.339 117.157 156.267C117.261 156.195 117.314 156.094 117.314 155.969C117.314 155.861 117.274 155.771 117.195 155.695C117.117 155.62 116.968 155.536 116.749 155.444L116.025 155.15C115.599 154.976 115.306 154.8 115.144 154.62C114.984 154.44 114.903 154.209 114.903 153.929C114.903 153.583 115.025 153.317 115.269 153.133C115.514 152.948 115.865 152.856 116.322 152.856H117.888V153.565H116.12C115.976 153.565 115.864 153.597 115.783 153.66C115.702 153.723 115.663 153.814 115.663 153.929C115.663 154.016 115.698 154.093 115.77 154.162C115.842 154.232 115.961 154.301 116.128 154.371L116.891 154.682C117.367 154.879 117.687 155.068 117.852 155.249C118.018 155.431 118.1 155.661 118.1 155.942C118.1 156.333 117.955 156.626 117.665 156.816C117.374 157.007 116.927 157.102 116.322 157.102H114.894V156.375ZM118.932 157.102V152.856H119.692V157.102H118.932ZM118.853 151.65C118.853 151.523 118.897 151.413 118.987 151.325C119.075 151.235 119.185 151.19 119.315 151.19C119.443 151.19 119.552 151.235 119.64 151.322C119.727 151.41 119.771 151.52 119.771 151.65C119.771 151.781 119.727 151.893 119.64 151.985C119.552 152.075 119.443 152.121 119.315 152.121C119.188 152.121 119.079 152.075 118.988 151.982C118.898 151.89 118.853 151.78 118.853 151.65ZM120.673 157.102V154.785C120.673 154.168 120.837 153.679 121.165 153.317C121.492 152.957 121.929 152.777 122.475 152.777C123.021 152.777 123.457 152.957 123.781 153.317C124.106 153.679 124.268 154.168 124.268 154.785V157.102H123.518V154.647C123.518 154.311 123.42 154.04 123.226 153.828C123.032 153.617 122.781 153.512 122.474 153.512C122.168 153.512 121.917 153.617 121.72 153.828C121.523 154.04 121.424 154.311 121.424 154.647V157.102H120.673ZM129.251 156.856C129.251 157.545 129.058 158.088 128.671 158.484C128.284 158.88 127.757 159.078 127.087 159.078C126.883 159.078 126.671 159.057 126.451 159.017C126.23 158.977 125.998 158.917 125.754 158.835L125.919 158.112C126.172 158.195 126.394 158.255 126.585 158.293C126.777 158.332 126.951 158.351 127.105 158.351C127.538 158.351 127.876 158.224 128.122 157.972C128.368 157.718 128.492 157.369 128.492 156.926V154.988C128.492 154.543 128.367 154.183 128.116 153.908C127.866 153.632 127.541 153.495 127.14 153.495C126.743 153.495 126.417 153.63 126.163 153.904C125.908 154.176 125.78 154.527 125.78 154.957C125.78 155.395 125.911 155.754 126.173 156.035C126.435 156.314 126.768 156.455 127.174 156.455C127.358 156.455 127.538 156.422 127.712 156.359C127.885 156.295 128.06 156.198 128.236 156.065V156.883C128.063 156.98 127.881 157.054 127.691 157.102C127.499 157.149 127.299 157.172 127.089 157.172C126.888 157.172 126.688 157.141 126.49 157.079C126.292 157.017 126.113 156.93 125.951 156.818C125.646 156.607 125.414 156.342 125.253 156.026C125.093 155.71 125.012 155.359 125.012 154.972C125.012 154.336 125.212 153.812 125.611 153.399C126.01 152.984 126.516 152.777 127.131 152.777C127.536 152.777 127.907 152.879 128.243 153.084C128.579 153.289 128.838 153.571 129.019 153.929C129.103 154.091 129.161 154.269 129.197 154.461C129.234 154.652 129.251 154.939 129.251 155.32V156.856ZM130.223 157.102V150.907H130.983V157.102H130.223ZM135.559 152.856V155.172C135.559 155.715 135.441 156.15 135.206 156.477C134.97 156.805 134.614 157.028 134.137 157.146V158.989H133.378V157.146C132.901 157.028 132.546 156.806 132.313 156.48C132.081 156.153 131.965 155.718 131.965 155.172V152.856H132.715V155.311C132.715 155.647 132.814 155.918 133.011 156.13C133.208 156.341 133.458 156.446 133.765 156.446C134.073 156.446 134.323 156.341 134.517 156.13C134.711 155.918 134.809 155.647 134.809 155.311V152.856H135.559ZM138.74 157.102V156.277H140.851C141.187 156.277 141.442 156.211 141.615 156.078C141.789 155.945 141.876 155.751 141.876 155.495C141.876 155.295 141.81 155.122 141.676 154.973C141.542 154.824 141.292 154.657 140.924 154.469L139.89 153.938C139.51 153.744 139.228 153.521 139.044 153.269C138.86 153.017 138.767 152.729 138.767 152.406C138.767 151.942 138.935 151.577 139.272 151.309C139.609 151.041 140.07 150.907 140.657 150.907H142.441V151.722H140.386C140.151 151.722 139.962 151.783 139.824 151.902C139.684 152.022 139.615 152.179 139.615 152.375C139.615 152.554 139.675 152.709 139.797 152.84C139.92 152.972 140.213 153.156 140.675 153.396L141.574 153.855C141.969 154.057 142.26 154.288 142.45 154.548C142.639 154.808 142.733 155.109 142.733 155.452C142.733 155.975 142.555 156.379 142.2 156.669C141.845 156.957 141.342 157.102 140.691 157.102H138.74ZM143.588 157.102V152.856H144.348V157.102H143.588ZM143.509 151.65C143.509 151.523 143.553 151.413 143.643 151.325C143.731 151.235 143.841 151.19 143.971 151.19C144.099 151.19 144.208 151.235 144.296 151.322C144.383 151.41 144.427 151.52 144.427 151.65C144.427 151.781 144.383 151.893 144.296 151.985C144.208 152.075 144.099 152.121 143.971 152.121C143.844 152.121 143.736 152.075 143.644 151.982C143.554 151.89 143.509 151.78 143.509 151.65ZM145.329 157.102V154.647C145.329 154.069 145.479 153.614 145.782 153.279C146.083 152.944 146.49 152.777 147 152.777C147.262 152.777 147.504 152.833 147.725 152.944C147.945 153.054 148.137 153.217 148.298 153.43C148.464 153.214 148.657 153.051 148.876 152.941C149.094 152.831 149.334 152.777 149.596 152.777C150.102 152.777 150.507 152.945 150.81 153.28C151.114 153.617 151.265 154.072 151.265 154.647V157.102H150.514V154.503C150.514 154.207 150.429 153.967 150.26 153.785C150.09 153.604 149.87 153.512 149.596 153.512C149.322 153.512 149.101 153.604 148.932 153.785C148.762 153.967 148.677 154.207 148.677 154.503V157.102H147.926V154.503C147.926 154.207 147.84 153.967 147.667 153.785C147.495 153.604 147.273 153.512 146.999 153.512C146.724 153.512 146.502 153.604 146.332 153.785C146.164 153.967 146.08 154.207 146.08 154.503V157.102H145.329ZM152.182 158.989V155.32C152.182 154.96 152.2 154.679 152.237 154.48C152.272 154.28 152.333 154.097 152.415 153.929C152.59 153.568 152.846 153.286 153.183 153.082C153.522 152.879 153.897 152.777 154.311 152.777C154.926 152.777 155.433 152.984 155.832 153.399C156.23 153.812 156.431 154.336 156.431 154.972C156.431 155.261 156.381 155.537 156.282 155.8C156.183 156.062 156.041 156.297 155.854 156.5C155.664 156.715 155.437 156.88 155.172 156.997C154.907 157.113 154.632 157.172 154.345 157.172C154.134 157.172 153.934 157.149 153.743 157.102C153.553 157.054 153.37 156.98 153.198 156.883V156.065C153.37 156.198 153.546 156.295 153.725 156.359C153.903 156.422 154.084 156.455 154.269 156.455C154.675 156.455 155.007 156.314 155.27 156.035C155.531 155.754 155.662 155.395 155.662 154.957C155.662 154.53 155.534 154.18 155.278 153.905C155.022 153.632 154.694 153.495 154.293 153.495C153.893 153.495 153.567 153.632 153.317 153.908C153.067 154.183 152.942 154.543 152.942 154.988V158.989H152.182ZM157.217 157.102V150.907H157.977V157.102H157.217ZM163.03 155.224C162.924 155.83 162.68 156.31 162.297 156.661C161.916 157.014 161.451 157.19 160.901 157.19C160.715 157.19 160.53 157.165 160.348 157.115C160.165 157.063 159.993 156.989 159.833 156.892C159.494 156.684 159.231 156.412 159.044 156.076C158.857 155.743 158.764 155.373 158.764 154.973C158.764 154.678 158.818 154.399 158.926 154.133C159.034 153.867 159.189 153.628 159.393 153.413C159.597 153.202 159.83 153.043 160.089 152.932C160.35 152.822 160.623 152.768 160.911 152.768C161.339 152.768 161.722 152.882 162.059 153.109C162.397 153.335 162.671 153.666 162.88 154.1L160.108 155.641L159.789 155.065L161.846 153.914C161.72 153.772 161.577 153.666 161.42 153.594C161.261 153.521 161.089 153.486 160.901 153.486C160.522 153.486 160.201 153.628 159.94 153.913C159.68 154.196 159.55 154.548 159.55 154.966C159.55 155.381 159.681 155.732 159.943 156.017C160.205 156.302 160.524 156.446 160.9 156.446C161.261 156.446 161.561 156.326 161.805 156.088C162.048 155.851 162.2 155.523 162.26 155.108L163.03 155.224ZM163.975 156.66C163.975 156.517 164.024 156.394 164.122 156.294C164.22 156.195 164.343 156.144 164.49 156.144C164.633 156.144 164.755 156.195 164.853 156.294C164.951 156.394 165 156.517 165 156.66C165 156.799 164.95 156.918 164.851 157.016C164.751 157.115 164.63 157.164 164.49 157.164C164.346 157.164 164.224 157.115 164.124 157.016C164.025 156.918 163.975 156.799 163.975 156.66Z" fill="#2B2A29"/>
<path d="M24.0127 116.724H29.3685L37.2347 137.603L45.0453 116.724H50.2894L40.9167 141.634C40.5449 142.455 40.0427 143.08 39.4105 143.509C38.7781 143.938 38.0158 144.152 37.1232 144.152C35.1147 144.152 33.8316 143.201 33.2738 141.298L24.0127 116.724ZM58.0439 130.774L71.3774 123.385C69.7039 121.706 67.621 120.867 65.1292 120.867C62.4141 120.867 60.2569 121.837 58.6577 123.777C57.0583 125.718 56.3517 127.994 56.5377 130.606C56.6491 133.032 57.486 135.122 59.0483 136.876C60.6103 138.63 62.7116 139.488 65.3522 139.451C68.0674 139.413 70.1036 138.685 71.4612 137.267C72.8187 135.849 73.7577 133.76 74.2785 130.998L79.1879 131.67C79.1136 133.536 78.5371 135.43 77.4585 137.351C76.3798 139.273 74.7714 140.896 72.6328 142.221C70.4942 143.546 67.9559 144.227 65.0175 144.264C62.6371 144.264 60.3964 143.649 58.295 142.417C56.1937 141.186 54.5198 139.525 53.274 137.435C52.0281 135.346 51.405 133.125 51.405 130.774C51.2935 126.072 52.6697 122.462 55.5335 119.943C58.3973 117.424 61.5959 116.165 65.1292 116.165C68.1788 116.165 70.7546 116.864 72.8559 118.264C74.9573 119.663 76.7518 121.799 78.2395 124.673L60.1639 134.749L58.0439 130.774ZM84.2647 104.354H89.1741V143.593H84.2647V104.354ZM95.5341 116.724H100.444V132.901C100.555 134.842 101.234 136.4 102.48 137.575C103.726 138.751 105.186 139.376 106.859 139.451C108.719 139.451 110.262 138.779 111.49 137.435C112.717 136.092 113.387 134.581 113.498 132.901V116.724H118.407V132.677C118.407 135.999 117.301 138.769 115.088 140.99C112.875 143.21 110.132 144.264 106.859 144.152C103.661 144.041 100.973 142.986 98.7977 140.99C96.622 138.993 95.5341 135.999 95.5341 132.006V116.724ZM129.454 130.774L142.787 123.385C141.114 121.706 139.031 120.867 136.539 120.867C133.824 120.867 131.667 121.837 130.067 123.777C128.468 125.718 127.762 127.994 127.947 130.606C128.059 133.032 128.896 135.122 130.458 136.876C132.02 138.63 134.121 139.488 136.762 139.451C139.477 139.413 141.513 138.685 142.871 137.267C144.228 135.849 145.167 133.76 145.688 130.998L150.598 131.67C150.523 133.536 149.947 135.43 148.868 137.351C147.79 139.273 146.181 140.896 144.042 142.221C141.904 143.546 139.366 144.227 136.427 144.264C134.047 144.264 131.806 143.649 129.705 142.417C127.603 141.186 125.93 139.525 124.684 137.435C123.438 135.346 122.815 133.125 122.815 130.774C122.703 126.072 124.079 122.462 126.943 119.943C129.807 117.424 133.006 116.165 136.539 116.165C139.589 116.165 142.164 116.864 144.266 118.264C146.367 119.663 148.162 121.799 149.649 124.673L131.574 134.749L129.454 130.774Z" fill="#182755"/>
<path fill-rule="evenodd" clip-rule="evenodd" d="M150.671 106.255C151.563 106.255 152.434 106.484 153.286 106.946C154.135 107.405 154.799 108.065 155.273 108.92C155.747 109.778 155.985 110.673 155.985 111.601C155.985 112.522 155.752 113.408 155.283 114.257C154.816 115.107 154.162 115.767 153.317 116.236C152.473 116.707 151.59 116.942 150.671 116.942C149.749 116.942 148.866 116.707 148.022 116.236C147.177 115.767 146.52 115.107 146.051 114.257C145.582 113.408 145.346 112.522 145.346 111.601C145.346 110.673 145.584 109.778 146.061 108.92C146.54 108.065 147.204 107.405 148.053 106.946C148.905 106.484 149.776 106.255 150.671 106.255ZM150.671 107.139C149.922 107.139 149.193 107.333 148.486 107.717C147.779 108.101 147.225 108.652 146.826 109.368C146.427 110.083 146.227 110.827 146.227 111.601C146.227 112.372 146.424 113.109 146.816 113.815C147.208 114.52 147.757 115.071 148.462 115.465C149.167 115.859 149.903 116.057 150.671 116.057C151.436 116.057 152.172 115.859 152.877 115.465C153.582 115.071 154.13 114.52 154.52 113.815C154.91 113.109 155.105 112.372 155.105 111.601C155.105 110.827 154.905 110.083 154.508 109.368C154.111 108.652 153.558 108.101 152.848 107.717C152.138 107.333 151.412 107.139 150.671 107.139ZM148.334 114.549V108.807H150.302C150.976 108.807 151.462 108.86 151.763 108.966C152.066 109.073 152.304 109.256 152.485 109.522C152.663 109.786 152.752 110.066 152.752 110.363C152.752 110.781 152.603 111.149 152.302 111.458C152.004 111.77 151.607 111.944 151.111 111.982C151.313 112.067 151.477 112.169 151.597 112.287C151.828 112.512 152.109 112.891 152.444 113.425L153.142 114.549H152.02L151.51 113.645C151.111 112.932 150.786 112.485 150.541 112.306C150.372 112.176 150.127 112.111 149.802 112.113H149.258V114.549H148.334ZM149.258 111.316H150.38C150.916 111.316 151.282 111.236 151.477 111.076C151.671 110.917 151.77 110.704 151.77 110.443C151.77 110.274 151.722 110.122 151.628 109.989C151.534 109.853 151.404 109.754 151.238 109.689C151.07 109.624 150.762 109.59 150.31 109.59H149.258V111.316Z" fill="#182755"/>
<defs>
<radialGradient id="paint0_radial_115_1862" cx="0" cy="0" r="1" gradientUnits="userSpaceOnUse" gradientTransform="translate(93.876 53.1779) rotate(-180) scale(2.87154 2.88444)">
<stop stop-color="white"/>
<stop offset="1" stop-color="#0089C3"/>
</radialGradient>
<radialGradient id="paint1_radial_115_1862" cx="0" cy="0" r="1" gradientUnits="userSpaceOnUse" gradientTransform="translate(93.7795 52.1347) rotate(-180) scale(2.85065 2.86346)">
<stop stop-color="#E2F7FF"/>
<stop offset="0.631373" stop-color="#71C9E5"/>
<stop offset="0.85098" stop-color="#009CCC"/>
<stop offset="1" stop-color="#008ECC"/>
</radialGradient>
<radialGradient id="paint2_radial_115_1862" cx="0" cy="0" r="1" gradientUnits="userSpaceOnUse" gradientTransform="translate(99.1406 51.7937) rotate(-180) scale(23.507 23.6125)">
<stop stop-color="#E2F7FF"/>
<stop offset="0.611765" stop-color="#71C9E5"/>
<stop offset="0.878431" stop-color="#009CCC"/>
<stop offset="1" stop-color="#0092CC"/>
</radialGradient>
<linearGradient id="paint3_linear_115_1862" x1="76.8195" y1="65.5907" x2="78.1943" y2="58.1977" gradientUnits="userSpaceOnUse">
<stop stop-color="#E2F7FF"/>
<stop offset="0.658824" stop-color="#CBE9F2"/>
<stop offset="1" stop-color="#B3DAE4"/>
</linearGradient>
<linearGradient id="paint4_linear_115_1862" x1="82.0053" y1="72.0844" x2="103.072" y2="72.0844" gradientUnits="userSpaceOnUse">
<stop stop-color="#E2F7FF"/>
<stop offset="0.2" stop-color="#D1F0FB"/>
<stop offset="0.301961" stop-color="#BFE8F6"/>
<stop offset="1" stop-color="#6EC8E4"/>
</linearGradient>
</defs>
</svg>
