<svg width="21" height="22" viewBox="0 0 21 22" fill="none" xmlns="http://www.w3.org/2000/svg">
<path d="M19.25 21.5H15.5V20H19.25V12.5H14V19.25C14 20.525 13.025 21.5 11.75 21.5C10.475 21.5 9.5 20.525 9.5 19.25V17H11V19.25C11 19.7 11.3 20 11.75 20C12.2 20 12.5 19.7 12.5 19.25V11H20.75V20C20.75 20.825 20.075 21.5 19.25 21.5ZM8 20H7.25C4.325 20 2 17.675 2 14.75V11.75H3.5V14.75C3.5 16.85 5.15 18.5 7.25 18.5H8V20ZM7.25 6.5V8H9.5C10.325 8 11 7.325 11 6.5V2C11 1.175 10.325 0.5 9.5 0.5H2C1.175 0.5 0.5 1.175 0.5 2V6.5C0.5 7.325 1.175 8 2 8H3.8L5.075 10.25L6.35 9.5L4.625 6.5H2V2H9.5V6.5H7.25Z" fill="white"/>
</svg>
